<svg xmlns="http://www.w3.org/2000/svg" width="128" height="128" viewBox="0 0 128 128" fill="none">
  <defs>
    <linearGradient id="gradEye" x1="0" y1="0" x2="128" y2="128" gradientUnits="userSpaceOnUse">
      <stop offset="0%" stop-color="#7CC9FF"/>
      <stop offset="100%" stop-color="#8A7CFF"/>
    </linearGradient>
    <filter id="softShadow" x="-20%" y="-20%" width="140%" height="140%">
      <feDropShadow dx="0" dy="2" stdDeviation="3" flood-color="#0A1020" flood-opacity="0.35"/>
    </filter>
  </defs>
  <rect x="8" y="8" width="112" height="112" rx="20" fill="#0D1326"/>
  <rect x="8" y="8" width="112" height="112" rx="20" stroke="url(#gradEye)" stroke-width="2" fill="none"/>
  <g stroke="url(#gradEye)" stroke-width="4" stroke-linecap="round" stroke-linejoin="round" filter="url(#softShadow)">
  
  <!-- Eye -->
  <path d="M24 72c10-16 26-24 40-24s30 8 40 24c-10 16-26 24-40 24S34 88 24 72z" fill="none"/>
  <circle cx="64" cy="72" r="12" fill="none"/>
  <circle cx="64" cy="72" r="5"/>
  <!-- Tracking reticle -->
  <path d="M64 46v-8m0 68v-8m-26-26h-8m68 0h-8"/>
  <path d="M92 44l12-12m-8 0h8v8"/>

  </g>
</svg>