<svg xmlns="http://www.w3.org/2000/svg" width="128" height="128" viewBox="0 0 128 128" fill="none">
  <defs>
    <linearGradient id="gradCognitiveV2" x1="0" y1="0" x2="128" y2="128" gradientUnits="userSpaceOnUse">
      <stop offset="0%" stop-color="#7CC9FF"/>
      <stop offset="100%" stop-color="#8A7CFF"/>
    </linearGradient>
    <filter id="softShadow" x="-20%" y="-20%" width="140%" height="140%">
      <feDropShadow dx="0" dy="2" stdDeviation="3" flood-color="#0A1020" flood-opacity="0.35"/>
    </filter>
  </defs>
  <rect x="8" y="8" width="112" height="112" rx="20" fill="#0D1326"/>
  <rect x="8" y="8" width="112" height="112" rx="20" stroke="url(#gradCognitiveV2)" stroke-width="2" fill="none"/>
  <g stroke="url(#gradCognitiveV2)" stroke-width="4" stroke-linecap="round" stroke-linejoin="round" filter="url(#softShadow)">
  
  <path d="M44 88h24c0-8 6-12 12-12h6V64c0-18-14-32-32-32-6 0-12 2-16 6-4 3-6 8-8 12l-6 2 6 4v12c0 12 6 20 14 20z" fill="none"/>
  <path d="M62 50c4 0 10 4 10 9 0 3-2 5-4 7" fill="none"/>

  </g>
</svg>